<svg xmlns="http://www.w3.org/2000/svg" width="512" height="512" viewBox="0 0 512 512">
  <rect width="512" height="512" fill="#000000" rx="64" />
  <path d="M120 336V176h72c28 0 50 7 64 21 10 10 15 23 15 39 0 17-6 30-17 40-13 12-33 18-58 18h-20v42h-56zm56-88h16c12 0 21-2 26-7 4-4 6-9 6-15 0-7-2-12-7-16-5-4-13-6-24-6h-17v44zm143 90c-21 0-39-7-52-21-13-14-20-33-20-57 0-23 7-42 21-56 13-14 31-21 53-21 21 0 38 7 51 20 13 14 20 33 20 57 0 25-6 44-19 58-13 14-31 20-54 20zm1-43c18 0 27-12 27-36 0-23-9-35-27-35-9 0-16 3-21 9-5 6-7 15-7 27 0 25 9 37 28 37zm141 41c-18 0-33-4-45-13-12-9-18-20-18-33h56c1 8 6 12 16 12 7 0 12-2 16-5 4-4 5-9 5-15 0-6-2-10-6-13s-10-5-19-7l-19-4c-17-4-30-10-38-18-8-9-12-20-12-34 0-17 6-30 18-39 12-9 28-14 48-14 18 0 33 4 44 13 11 9 17 20 18 34h-55c-1-5-3-8-6-10-3-2-8-3-13-3-6 0-11 2-14 5s-5 7-5 12c0 6 2 10 6 13 4 3 10 5 19 7l20 4c17 4 30 10 38 18 8 9 12 20 12 35 0 18-6 31-18 41-12 10-28 15-49 15z" fill="#FFFFFF"/>
  <path d="M120 336V176h72c28 0 50 7 64 21 10 10 15 23 15 39 0 17-6 30-17 40-13 12-33 18-58 18h-20v42h-56zm56-88h16c12 0 21-2 26-7 4-4 6-9 6-15 0-7-2-12-7-16-5-4-13-6-24-6h-17v44z" fill="#FF5A1F"/>
</svg>

